#!OML:ASF F:\VICON\USERDATA\INSTALL\rory3\rory3.ASF
:FULLY-SPECIFIED
:DEGREES
229
root 4.94077 14.359 26.7275 -3.97441 -52.768 21.7652
lowerback 19.9245 -3.22452 -21.7532
upperback -7.04274 -14.1853 -14.9835
thorax -18.6119 -5.17133 -0.627082
lowerneck -10.1562 8.62323 2.0813
upperneck 19.324 8.80397 12.8149
head 7.1057 5.41678 4.60061
rclavicle 5.96354e-016 6.36111e-014
rhumerus -116.576 -58.4064 98.9475
rradius 13.0252
rwrist 70.2908
rhand -38.2178 35.2999
rfingers 7.12502
rthumb -11.2493 5.6215
lclavicle 5.96354e-016 6.36111e-014
lhumerus 39.4841 28.5146 52.8178
lradius 15.6117
lwrist -29.9435
lhand -20.2145 16.0022
lfingers 7.12502
lthumb 6.1327 45.8934
rfemur -85.4068 -6.19865 24.7656
rtibia 49.7727
rfoot 8.08843 -45.3045
rtoes 40.2456
lfemur -55.5771 14.6181 -48.2498
ltibia 71.4399
lfoot -33.6253 10.5203
ltoes -1.46395
230
root 4.94568 14.3773 26.7387 -3.61623 -52.9288 21.2565
lowerback 19.9645 -3.07645 -21.6001
upperback -7.08677 -13.9447 -14.8927
thorax -18.7153 -5.06003 -0.659338
lowerneck -9.62358 8.50863 2.43195
upperneck 19.5541 8.60469 12.6592
head 7.12641 5.31872 4.46346
rclavicle 3.13086e-014 -6.99722e-014
rhumerus -119.332 -56.8291 100.072
rradius 12.9496
rwrist 70.544
rhand -39.3517 37.5224
rfingers 7.12502
rthumb -12.3428 7.90669
lclavicle 3.13086e-014 -6.99722e-014
lhumerus 46.9606 39.6863 68.4055
lradius 14.9309
lwrist -37.049
lhand -20.3144 12.3424
lfingers 7.12502
lthumb 6.03633 42.2364
rfemur -85.6061 -8.19175 28.8105
rtibia 49.8007
rfoot 13.3355 -42.4955
rtoes 38.7734
lfemur -55.5304 14.5903 -47.9049
ltibia 71.3276
lfoot -33.5764 10.8492
ltoes -1.75068
231
root 4.94992 14.4347 26.7349 -4.98507 -52.6425 23.1582
lowerback 19.8467 -2.81164 -23.093
upperback -7.02355 -13.9549 -15.0023
thorax -18.2792 -4.95593 -0.162942
lowerneck -9.16828 8.22401 2.48485
upperneck 19.2555 8.30127 12.3973
head 6.98063 5.13375 4.30711
rclavicle -3.27995e-014 8.26944e-014
rhumerus -126.459 -53.704 106.244
rradius 12.7969
rwrist 73.7522
rhand -40.3227 38.4601
rfingers 7.12502
rthumb -13.2789 8.90308
lclavicle -3.27995e-014 8.26944e-014
lhumerus 39.7801 33.9183 59.8036
lradius 16.6164
lwrist -18.2387
lhand -20.9086 13.4013
lfingers 7.12502
lthumb 5.4626 43.3109
rfemur -86.1419 -8.48261 26.5972
rtibia 50.314
rfoot 13.911 -43.0448
rtoes 37.7166
lfemur -54.9961 14.2583 -49.1579
ltibia 70.6263
lfoot -33.4937 11.1711
ltoes -2.05631
232
root 4.95646 14.4377 26.7606 -3.81983 -53.2196 21.6439
lowerback 19.5975 -2.6159 -22.4282
upperback -6.90092 -13.2274 -14.5425
thorax -18.0124 -4.69164 -0.182611
lowerneck -9.34579 7.93077 2.45287
upperneck 19.3795 7.94148 12.0441
head 7.0867 4.93718 4.18792
rclavicle -2.06736e-014 -6.36111e-014
rhumerus -134.395 -48.8112 113.829
rradius 12.8625
rwrist 78.8724
rhand -39.9575 38.4457
rfingers 7.12502
rthumb -12.9268 8.86611
lclavicle -2.06736e-014 -6.36111e-014
lhumerus 34.8256 28.9653 55.2021
lradius 19.1891
lwrist 0.0523663
lhand -23.5947 14.0192
lfingers 7.12502
lthumb 2.8688 43.9797
rfemur -86.5431 -10.4442 32.6663
rtibia 50.3557
rfoot 23.6459 -36.8727
rtoes 31.3699
lfemur -55.3415 14.3973 -48.1255
ltibia 70.7902
lfoot -33.7091 11.1271
ltoes -0.67811
233
root 4.96594 14.4824 26.7734 -3.33796 -53.0036 20.9813
lowerback 19.4576 -2.49995 -22.1747
upperback -6.56757 -12.7349 -14.263
thorax -17.4927 -4.53056 -0.153801
lowerneck -9.80034 7.69548 2.03423
upperneck 19.7981 7.62482 12.045
head 7.29886 4.77871 4.27416
rclavicle -4.47266e-014 0
rhumerus -138.138 -45.0663 116.543
rradius 12.9309
rwrist 80.8255
rhand -40.0169 39.1318
rfingers 7.12502
rthumb -12.9841 9.55586
lclavicle -4.47266e-014 0
lhumerus 37.4157 35.4382 62.725
lradius 19.3809
lwrist -3.14471
lhand -20.095 15.8464
lfingers 7.12502
lthumb 6.24807 45.7343
rfemur -87.0136 -12.0243 34.6779
rtibia 50.8825
rfoot 24.595 -35.7239
rtoes 33.0961
lfemur -54.9333 13.9469 -47.6941
ltibia 70.5497
lfoot -33.8234 11.1834
ltoes 0.402675
234
root 4.96138 14.4698 26.8028 -2.2383 -53.4507 19.7552
lowerback 18.9913 -2.23882 -21.558
upperback -6.48321 -11.9271 -13.9276
thorax -17.2026 -4.24177 -0.333717
lowerneck -9.51132 7.4071 1.43942
upperneck 19.8402 7.29878 12.2601
head 7.23779 4.59173 4.39856
rclavicle 3.22031e-014 -5.08889e-014
rhumerus -138.216 -43.9546 114.41
rradius 12.7593
rwrist 77.8114
rhand -40.8946 42.6493
rfingers 7.12502
rthumb -13.8301 13.1291
lclavicle 3.22031e-014 -5.08889e-014
lhumerus 37.7723 38.5221 67.7881
lradius 20.98
lwrist 0.471197
lhand -20.6048 16.3165
lfingers 7.12502
lthumb 5.75588 46.2183
rfemur -87.6105 -13.2834 39.2164
rtibia 51.0785
rfoot 30.1303 -30.0661
rtoes 26.8516
lfemur -55.4344 13.9169 -46.8694
ltibia 70.9458
lfoot -34.0813 11.073
ltoes 1.65281
235
root 4.96696 14.4813 26.8279 -1.59161 -53.724 18.9355
lowerback 18.7883 -1.90908 -21.1932
upperback -6.39454 -11.2196 -13.6947
thorax -17.0367 -3.96241 -0.461662
lowerneck -9.02839 7.03622 1.33676
upperneck 19.8037 6.85365 12.0927
head 7.16722 4.34158 4.30081
rclavicle -1.11319e-014 -2.22639e-014
rhumerus -138.455 -42.4568 112.539
rradius 12.5738
rwrist 74.7318
rhand -38.7911 32.8331
rfingers 7.12502
rthumb -11.8022 3.1857
lclavicle -1.11319e-014 -2.22639e-014
lhumerus 37.6482 41.1491 72.2559
lradius 22.8823
lwrist 3.44268
lhand -20.3776 17.4638
lfingers 7.12502
lthumb 5.97527 47.3596
rfemur -88.0477 -14.0562 41.6662
rtibia 51.7965
rfoot 31.9695 -27.5347
rtoes 24.6543
lfemur -55.5091 13.7932 -46.2955
ltibia 71.0173
lfoot -34.3405 11.0555
ltoes 2.35842
236
root 4.97574 14.5045 26.8497 -1.26908 -53.8929 18.4233
lowerback 18.6765 -1.59819 -21.105
upperback -6.29011 -10.63 -13.432
thorax -16.8366 -3.70403 -0.392036
lowerneck -8.64891 6.70757 1.31283
upperneck 19.8624 6.45417 11.8448
head 7.15 4.117 4.17899
rclavicle 5.1684e-014 4.77083e-014
rhumerus -139.944 -40.0787 112.191
rradius 12.5415
rwrist 73.4131
rhand -38.7466 32.4914
rfingers 7.12502
rthumb -11.7593 2.84145
lclavicle 5.1684e-014 4.77083e-014
lhumerus 36.7958 43.1104 75.3181
lradius 24.3882
lwrist 7.31423
lhand -20.0525 18.9594
lfingers 7.12502
lthumb 6.28917 48.8461
rfemur -88.5458 -14.8577 43.3349
rtibia 52.7332
rfoot 33.5078 -25.5598
rtoes 24.1027
lfemur -55.3467 13.5993 -45.9286
ltibia 71.0052
lfoot -34.5692 11.527
ltoes 2.25456
237
root 4.98132 14.524 26.877 -1.34795 -54.0726 18.3696
lowerback 18.4192 -1.27824 -21.2185
upperback -6.11051 -10.0326 -13.2472
thorax -16.4539 -3.45162 -0.3294
lowerneck -8.24462 6.37926 0.811705
upperneck 19.8496 6.05715 12.0431
head 7.06577 3.89506 4.27558
rclavicle -1.29608e-013 8.26944e-014
rhumerus -140.394 -38.9407 110.036
rradius 12.3977
rwrist 70.3397
rhand -39.0412 32.7871
rfingers 7.12502
rthumb -12.0434 3.15368
lclavicle -1.29608e-013 8.26944e-014
lhumerus 36.0641 45.0244 78.2103
lradius 25.442
lwrist 11.2168
lhand -19.6971 20.3306
lfingers 7.12502
lthumb 6.63224 50.2068
rfemur -89.0913 -15.4475 44.2323
rtibia 54.0699
rfoot 33.8528 -25.1109
rtoes 26.4794
lfemur -55.052 13.4759 -45.8827
ltibia 70.8381
lfoot -34.6678 12.1303
ltoes 1.70681
238
root 4.98137 14.5354 26.9123 -1.22319 -54.4016 18.1264
lowerback 17.9447 -0.942302 -21.1731
upperback -5.91771 -9.30035 -13.0571
thorax -15.9762 -3.16596 -0.380114
lowerneck -7.76808 6.03885 0.197358
upperneck 19.7469 5.64278 12.3769
head 6.93397 3.66329 4.42892
rclavicle -2.78299e-015 3.81667e-014
rhumerus -140.022 -38.8922 106.639
rradius 12.0881
rwrist 65.6377
rhand -39.2154 33.3232
rfingers 7.12502
rthumb -12.2114 3.69969
lclavicle -2.78299e-015 3.81667e-014
lhumerus 34.9362 46.3605 80.4898
lradius 26.5725
lwrist 16.188
lhand -19.5875 22.9684
lfingers 7.12502
lthumb 6.73799 52.8412
rfemur -89.8687 -16.02 45.6604
rtibia 55.5455
rfoot 35.7447 -21.9542
rtoes 25.1571
lfemur -54.9159 13.5733 -45.7706
ltibia 70.7968
lfoot -34.9161 12.4245
ltoes 2.03345
239
root 4.97338 14.541 26.9424 -1.54251 -54.4785 18.2584
lowerback 17.6738 -0.650765 -21.436
upperback -5.65859 -8.77229 -12.936
thorax -15.4917 -2.94699 -0.291556
lowerneck -7.22859 5.74769 -0.0826876
upperneck 19.5417 5.28267 12.5414
head 6.7779 3.46196 4.47231
rclavicle 4.21423e-014 6.99722e-014
rhumerus -139.233 -39.8135 102.318
rradius 11.715
rwrist 59.9951
rhand -39.548 33.3833
rfingers 7.12502
rthumb -12.5321 3.77911
lclavicle 4.21423e-014 6.99722e-014
lhumerus 33.6175 47.323 82.0777
lradius 27.2513
lwrist 22.4544
lhand -20.4014 26.384
lfingers 7.12502
lthumb 5.95227 56.2804
rfemur -90.8286 -16.9333 46.9383
rtibia 57.2247
rfoot 38.1691 -16.6994
rtoes 19.7072
lfemur -54.4699 13.6527 -45.8909
ltibia 70.8309
lfoot -35.3395 12.3908
ltoes 3.00664
240
root 4.97531 14.5375 26.9583 0.0812015 -55.0012 16.2342
lowerback 17.2713 -0.427564 -20.6493
upperback -5.5096 -7.99122 -12.4744
thorax -15.1627 -2.66066 -0.378892
lowerneck -6.91166 5.47885 -0.0922458
upperneck 19.5632 4.95679 12.3073
head 6.75723 3.27568 4.36477
rclavicle -2.3059e-014 -3.81667e-014
rhumerus -142.003 -37.5788 102.202
rradius 11.6246
rwrist 58.869
rhand -39.5211 34.561
rfingers 7.12502
rthumb -12.5061 4.9552
lclavicle -2.3059e-014 -3.81667e-014
lhumerus 31.6138 48.1343 83.1779
lradius 28.3367
lwrist 28.9597
lhand -21.4723 27.9425
lfingers 7.12502
lthumb 4.91828 57.8654
rfemur -90.9802 -16.5631 48.3999
rtibia 58.6878
rfoot 38.6903 -15.7232
rtoes 17.8673
lfemur -54.9842 14.0716 -44.7354
ltibia 71.4714
lfoot -35.6559 12.5807
ltoes 2.08622
241
root 4.9733 14.5286 26.9526 2.15009 -54.9542 13.8272
lowerback 17.1474 -0.315822 -19.7002
upperback -5.37869 -7.41027 -11.9663
thorax -15.0006 -2.45203 -0.427858
lowerneck -6.47902 5.18914 0.0134387
upperneck 19.5589 4.60757 11.9846
head 6.7152 3.07558 4.20337
rclavicle 6.20208e-014 4.45278e-014
rhumerus -139.371 -40.9138 94.8656
rradius 11.1829
rwrist 51.038
rhand -39.89 34.8108
rfingers 7.12502
rthumb -12.8618 5.22707
lclavicle 6.20208e-014 4.45278e-014
lhumerus 28.668 48.4873 83.6938
lradius 30.1353
lwrist 35.8323
lhand -22.41 28.4024
lfingers 7.12502
lthumb 4.0129 58.3444
rfemur -91.4554 -16.4126 49.8601
rtibia 60.3773
rfoot 38.4558 -17.6739
rtoes 20.6314
lfemur -55.6368 14.1576 -43.3807
ltibia 72.2172
lfoot -35.8663 12.6049
ltoes 0.544912
